<?xml version="1.0" standalone="no"?>
<!DOCTYPE svg PUBLIC "-//W3C//DTD SVG 20010904//EN"
 "http://www.w3.org/TR/2001/REC-SVG-20010904/DTD/svg10.dtd">
<svg version="1.0" xmlns="http://www.w3.org/2000/svg"
 width="512.000000pt" height="512.000000pt" viewBox="0 0 512.000000 512.000000"
 preserveAspectRatio="xMidYMid meet">
<metadata>
Created by potrace 1.11, written by Peter Selinger 2001-2013
</metadata>
<g transform="translate(0.000000,512.000000) scale(0.100000,-0.100000)"
fill="#000000" stroke="none">
<path d="M2315 4895 c-547 -60 -1043 -300 -1427 -691 -126 -129 -194 -212
-290 -359 -187 -284 -311 -612 -364 -960 -25 -164 -25 -494 0 -655 65 -426
233 -813 494 -1140 90 -113 259 -284 358 -362 257 -203 594 -371 900 -446 219
-55 358 -72 574 -72 373 0 699 77 1040 246 245 122 429 252 611 433 366 367
595 820 675 1341 25 160 25 490 0 655 -124 826 -649 1508 -1409 1835 -363 155
-774 217 -1162 175z m593 -2222 l-3 -878 -122 -3 -122 -3 -3 138 -3 138 -105
0 -105 0 -3 -138 -3 -137 -114 0 -115 0 0 880 0 880 350 0 350 0 -2 -877z
m-738 510 l-5 -58 -72 -3 -73 -3 0 -89 0 -90 74 0 74 0 4 -65 3 -64 -75 -3
-75 -3 0 -90 0 -90 73 -3 72 -3 0 -69 0 -70 -75 0 -75 0 0 -90 0 -90 75 0 75
0 0 -65 0 -65 -75 0 -75 0 0 -90 0 -90 75 0 75 0 0 -100 0 -100 -295 0 -295 0
0 725 0 725 298 0 297 0 -5 -57z m1370 -661 l0 -719 -217 -6 c-120 -4 -253 -7
-295 -7 l-78 0 0 100 0 100 75 0 76 0 -3 93 -3 92 -72 3 -73 3 0 54 0 54 73 3
72 3 3 93 3 92 -76 0 -75 0 0 70 0 70 75 0 76 0 -3 93 -3 92 -72 3 -73 3 0 64
0 65 75 0 75 0 0 90 0 89 -72 3 -73 3 -3 58 -3 57 296 0 295 0 0 -718z"/>
<path d="M2316 3374 c-3 -9 -6 -74 -6 -145 l0 -129 60 0 60 0 0 145 0 145 -54
0 c-40 0 -55 -4 -60 -16z"/>
<path d="M2490 3240 l0 -150 70 0 70 0 0 150 0 150 -70 0 -70 0 0 -150z"/>
<path d="M2690 3245 l0 -145 60 0 60 0 0 129 c0 71 -3 136 -6 145 -5 12 -20
16 -60 16 l-54 0 0 -145z"/>
<path d="M2317 3024 c-4 -4 -7 -72 -7 -151 l0 -143 65 0 66 0 -3 148 -3 147
-55 3 c-31 2 -59 0 -63 -4z"/>
<path d="M2490 2880 l0 -150 70 0 70 0 0 150 0 150 -70 0 -70 0 0 -150z"/>
<path d="M2690 2880 l0 -151 58 3 57 3 3 125 c4 171 4 170 -63 170 l-55 0 0
-150z"/>
<path d="M2317 2653 c-4 -3 -7 -71 -7 -150 l0 -143 66 0 c56 0 65 2 60 16 -3
9 -6 76 -6 150 l0 134 -53 0 c-30 0 -57 -3 -60 -7z"/>
<path d="M2490 2505 l0 -155 70 0 70 0 0 155 0 155 -70 0 -70 0 0 -155z"/>
<path d="M2690 2526 c0 -74 -3 -141 -6 -150 -5 -14 4 -16 60 -16 l67 0 -3 148
-3 147 -57 3 -58 3 0 -135z"/>
<path d="M1697 3123 c-4 -3 -7 -46 -7 -95 l0 -88 95 0 95 0 0 95 0 95 -88 0
c-49 0 -92 -3 -95 -7z"/>
<path d="M1690 2715 l0 -95 95 0 95 0 0 95 0 95 -95 0 -95 0 0 -95z"/>
<path d="M1777 2483 l-88 -4 3 -92 3 -92 93 -3 92 -3 0 101 c0 55 -3 99 -7 98
-5 -1 -48 -4 -96 -5z"/>
<path d="M1697 2173 c-4 -3 -7 -46 -7 -95 l0 -88 79 0 c44 0 86 -3 95 -6 14
-5 16 7 16 95 l0 101 -88 0 c-49 0 -92 -3 -95 -7z"/>
<path d="M3244 3121 c-2 -2 -4 -44 -4 -93 l0 -89 93 3 92 3 0 85 0 85 -88 5
c-49 3 -91 3 -93 1z"/>
<path d="M3240 2715 l0 -95 95 0 95 0 0 95 0 95 -95 0 -95 0 0 -95z"/>
<path d="M3240 2395 l0 -95 95 0 96 0 -3 93 -3 92 -92 3 -93 3 0 -96z"/>
<path d="M3240 2082 c0 -49 2 -91 4 -93 2 -2 45 -3 95 -1 l91 3 0 90 0 89 -95
0 -95 0 0 -88z"/>
</g>
</svg>
